<svg width="33" height="33" viewBox="0 0 33 33" version="1.1" xmlns="http://www.w3.org/2000/svg" xmlns:xlink="http://www.w3.org/1999/xlink"><title>contact</title><g transform="translate(864 -2311)"><g><g><g><g><use xlink:href="#path-contact0" transform="translate(-864 2311)"/></g></g></g><g><g><g><use xlink:href="#path-contact1" transform="translate(-849.903 2319.52)"/></g></g></g><g><g><g><use xlink:href="#path-contact2" transform="translate(-863.997 2338.55)"/></g></g></g><g><g><g><use xlink:href="#path-contact3" transform="translate(-859.841 2339.78)"/></g></g></g></g></g><defs><path id="path-contact0" d="M 32.1725 11.0041L 21.9951 0.826209C 20.8935 -0.275403 19.1011 -0.275403 17.9995 0.826209L 2.11658 16.7098C 1.56582 17.2607 1.29042 17.9842 1.29042 18.7077C 1.29042 19.4312 1.56582 20.1547 2.11658 20.7056L 4.67014 23.2592L 1.86624 26.0632C 1.74036 26.1891 1.67746 26.3541 1.67746 26.519C 1.67746 26.6839 1.74036 26.8489 1.86624 26.9748C 2.11793 27.2265 2.52605 27.2265 2.77774 26.9748L 5.58164 24.1708L 6.74947 25.3387L 0.188783 31.8997C 0.0629062 32.0255 0 32.1905 0 32.3555C 0 32.5204 0.0629062 32.6854 0.188783 32.8112C 0.440473 33.0629 0.84859 33.0629 1.10034 32.8112L 7.66109 26.2502L 12.294 30.8834C 13.3956 31.9849 15.188 31.9849 16.2896 30.8834L 32.1725 14.9997C 32.7061 14.4662 33 13.7566 33 13.0019C 33 12.2472 32.7061 11.5377 32.1725 11.0041ZM 13.8235 30.3472C 13.5974 30.2752 13.3845 30.1509 13.2054 29.9718L 3.02807 19.794C 2.62646 19.3923 2.4955 18.8221 2.63246 18.3092L 13.8235 18.3092L 13.8235 30.3472ZM 11.4937 17.0201L 13.4049 15.1088C 13.6566 14.8571 13.6567 14.449 13.4049 14.1973C 13.1531 13.9456 12.7451 13.9455 12.4934 14.1973L 9.67061 17.0201L 7.79277 17.0201L 13.6197 11.1929C 13.8713 10.9412 13.8714 10.5331 13.6197 10.2813C 13.368 10.0296 12.9599 10.0296 12.7082 10.2813L 5.96978 17.0201L 3.62936 17.0201L 18.3098 2.33905L 18.3098 15.4838C 18.3098 16.3309 17.6206 17.0201 16.7735 17.0201L 11.4937 17.0201ZM 31.2611 14.0883L 15.3781 29.9718C 15.2961 30.0538 15.2067 30.1234 15.1126 30.183L 15.1126 18.3092L 16.7736 18.3092C 18.3314 18.3092 19.5989 17.0418 19.5989 15.4838L 19.5989 13.8227L 26.9868 13.8227L 23.2571 17.5526C 23.1313 17.6785 23.0683 17.8435 23.0683 18.0084C 23.0683 18.1734 23.1312 18.3383 23.2571 18.4642C 23.5088 18.7159 23.9169 18.7159 24.1686 18.4642L 28.8094 13.8232C 28.8095 13.8231 28.8096 13.8229 28.8098 13.8228L 31.4735 13.8228C 31.4132 13.9177 31.3425 14.0069 31.2611 14.0883ZM 19.5988 12.5336L 19.5988 1.34218C 20.1118 1.20521 20.682 1.33618 21.0836 1.7378L 31.261 11.9156C 31.4371 12.0916 31.5648 12.303 31.6382 12.5336L 19.5988 12.5336Z"/><path id="path-contact1" d="M 1.10021 0.188855C 0.980332 0.0683232 0.814043 -3.14725e-07 0.644531 -3.14725e-07C 0.474375 -3.14725e-07 0.30873 0.0683232 0.188847 0.188855C 0.0689644 0.308743 7.86781e-08 0.474393 7.86781e-08 0.644556C 7.86781e-08 0.814074 0.0689644 0.98037 0.188847 1.10026C 0.30873 1.22015 0.474375 1.28911 0.644531 1.28911C 0.814043 1.28911 0.980332 1.22015 1.10021 1.10026C 1.2201 0.98037 1.28906 0.814074 1.28906 0.644556C 1.28906 0.474393 1.2201 0.308743 1.10021 0.188855Z"/><path id="path-contact2" d="M 1.10021 0.188855C 0.980332 0.0689679 0.814043 8.65493e-07 0.644531 8.65493e-07C 0.47502 8.65493e-07 0.30873 0.0689679 0.188848 0.188855C 0.0689648 0.308743 -5.76255e-11 0.475039 -5.76255e-11 0.644557C -5.76255e-11 0.814076 0.0689648 0.98037 0.188848 1.10026C 0.30873 1.22014 0.47502 1.28911 0.644531 1.28911C 0.814688 1.28911 0.980332 1.22014 1.10021 1.10026C 1.22074 0.98037 1.28906 0.814076 1.28906 0.644557C 1.28906 0.475039 1.22074 0.308743 1.10021 0.188855Z"/><path id="path-contact3" d="M 4.02755 0.188775C 3.77579 -0.0629242 3.36768 -0.0629242 3.11599 0.188775L 0.188783 3.11609C 0.0629707 3.24191 -7.86781e-08 3.40692 -7.86781e-08 3.57186C -7.86781e-08 3.7368 0.0629062 3.90181 0.188783 4.02769C 0.440537 4.27939 0.848654 4.27939 1.10034 4.02769L 4.02755 1.10037C 4.27917 0.848608 4.27917 0.440474 4.02755 0.188775Z"/></defs></svg>