<svg width="224" height="34" viewBox="0 0 224 34" version="1.1" xmlns="http://www.w3.org/2000/svg" xmlns:xlink="http://www.w3.org/1999/xlink"><title>alex@matho.me</title><g transform="translate(-1722 -3214)"><use xlink:href="#path-email" transform="translate(1720 3205)" fill="#FFFFFF"/></g></g><defs><path id="path-email" d="M 13.4648 35L 12.2695 33.207C 11.7773 33.8516 11.1621 34.373 10.4238 34.7715C 9.68555 35.1582 8.87695 35.3516 7.99805 35.3516L 7.45312 35.3516C 6.72656 35.3516 6.04102 35.2168 5.39648 34.9473C 4.75195 34.666 4.18945 34.2852 3.70898 33.8047C 3.22852 33.3242 2.84766 32.7617 2.56641 32.1172C 2.29688 31.4727 2.16211 30.7871 2.16211 30.0605L 2.16211 29.8848C 2.16211 29.1582 2.29688 28.4727 2.56641 27.8281C 2.84766 27.1836 3.22852 26.6211 3.70898 26.1406C 4.18945 25.6602 4.75195 25.2852 5.39648 25.0156C 6.04102 24.7344 6.72656 24.5938 7.45312 24.5938L 12.0234 24.5938L 12.0234 21.8164C 12.0234 21.3828 11.9414 20.9785 11.7773 20.6035C 11.6133 20.2168 11.3906 19.8828 11.1094 19.6016C 10.8281 19.3203 10.4941 19.0977 10.1074 18.9336C 9.73242 18.7695 9.32812 18.6875 8.89453 18.6875L 7.62891 18.6875C 7.19531 18.6875 6.78516 18.7695 6.39844 18.9336C 6.02344 19.0977 5.69531 19.3203 5.41406 19.6016C 5.13281 19.8828 4.91016 20.2168 4.74609 20.6035C 4.58203 20.9785 4.5 21.3828 4.5 21.8164L 4.5 22.4668L 2.33789 22.1152L 2.33789 21.9395C 2.33789 21.2129 2.47266 20.5273 2.74219 19.8828C 3.02344 19.2383 3.4043 18.6758 3.88477 18.1953C 4.36523 17.7148 4.92773 17.3398 5.57227 17.0703C 6.2168 16.7891 6.90234 16.6484 7.62891 16.6484L 8.89453 16.6484C 9.62109 16.6484 10.3066 16.7891 10.9512 17.0703C 11.5957 17.3398 12.1582 17.7148 12.6387 18.1953C 13.1191 18.6758 13.4941 19.2383 13.7637 19.8828C 14.0449 20.5273 14.1855 21.2129 14.1855 21.9395L 14.1855 35L 13.4648 35ZM 12.0234 26.2812L 7.45312 26.2812C 7.01953 26.2812 6.60938 26.3633 6.22266 26.5273C 5.84766 26.6914 5.51953 26.9199 5.23828 27.2129C 4.95703 27.4941 4.73438 27.8281 4.57031 28.2148C 4.40625 28.5898 4.32422 28.9941 4.32422 29.4277L 4.32422 30.1836C 4.32422 30.6172 4.40625 31.0273 4.57031 31.4141C 4.73438 31.7891 4.95703 32.1172 5.23828 32.3984C 5.51953 32.6797 5.84766 32.9023 6.22266 33.0664C 6.60938 33.2305 7.01953 33.3125 7.45312 33.3125L 8.89453 33.3125C 9.32812 33.3125 9.73242 33.2305 10.1074 33.0664C 10.4941 32.9023 10.8281 32.6797 11.1094 32.3984C 11.3906 32.1172 11.6133 31.7891 11.7773 31.4141C 11.9414 31.0273 12.0234 30.6172 12.0234 30.1836L 12.0234 26.2812ZM 19.2305 35L 19.2305 9.79297L 21.3926 9.79297L 21.3926 35L 19.2305 35ZM 38.4785 30.0605C 38.4785 30.7871 38.3379 31.4727 38.0566 32.1172C 37.7871 32.7617 37.4121 33.3242 36.9316 33.8047C 36.4512 34.2852 35.8887 34.666 35.2441 34.9473C 34.5996 35.2168 33.9141 35.3516 33.1875 35.3516L 31.7461 35.3516C 31.0195 35.3516 30.334 35.2168 29.6895 34.9473C 29.0449 34.666 28.4824 34.2852 28.002 33.8047C 27.5215 33.3242 27.1406 32.7617 26.8594 32.1172C 26.5898 31.4727 26.4551 30.7871 26.4551 30.0605L 26.4551 21.9395C 26.4551 21.2129 26.5898 20.5273 26.8594 19.8828C 27.1406 19.2383 27.5215 18.6758 28.002 18.1953C 28.4824 17.7148 29.0449 17.3398 29.6895 17.0703C 30.334 16.7891 31.0195 16.6484 31.7461 16.6484L 33.1875 16.6484C 33.9141 16.6484 34.5996 16.7891 35.2441 17.0703C 35.8887 17.3398 36.4512 17.7148 36.9316 18.1953C 37.4121 18.6758 37.7871 19.2383 38.0566 19.8828C 38.3379 20.5273 38.4785 21.2129 38.4785 21.9395L 38.4785 26.1758L 28.6172 26.1758L 28.6172 30.1836C 28.6172 30.6172 28.6992 31.0273 28.8633 31.4141C 29.0273 31.7891 29.25 32.1172 29.5312 32.3984C 29.8125 32.6797 30.1406 32.9023 30.5156 33.0664C 30.9023 33.2305 31.3125 33.3125 31.7461 33.3125L 33.1875 33.3125C 33.6211 33.3125 34.0254 33.2305 34.4004 33.0664C 34.7871 32.9023 35.1211 32.6797 35.4023 32.3984C 35.6836 32.1172 35.9062 31.7891 36.0703 31.4141C 36.2344 31.0273 36.3164 30.6172 36.3164 30.1836L 36.3164 28.9883L 38.4785 29.3398L 38.4785 30.0605ZM 36.3164 21.8164C 36.3164 21.3828 36.2344 20.9785 36.0703 20.6035C 35.9062 20.2168 35.6836 19.8828 35.4023 19.6016C 35.1211 19.3203 34.7871 19.0977 34.4004 18.9336C 34.0254 18.7695 33.6211 18.6875 33.1875 18.6875L 31.7461 18.6875C 31.3125 18.6875 30.9023 18.7695 30.5156 18.9336C 30.1406 19.0977 29.8125 19.3203 29.5312 19.6016C 29.25 19.8828 29.0273 20.2168 28.8633 20.6035C 28.6992 20.9785 28.6172 21.3828 28.6172 21.8164L 28.6172 24.4883L 36.3164 24.4883L 36.3164 21.8164ZM 52.1191 35L 48.2695 28.0918L 44.4199 35L 42.082 35L 47.127 26L 42.082 17L 44.4199 17L 48.2695 23.9082L 52.1191 17L 54.457 17L 49.4297 26L 54.457 35L 52.1191 35ZM 78.8379 30.5352C 78.6738 31.707 78.8203 32.5742 79.2773 33.1367C 79.7461 33.6875 80.4727 33.9629 81.457 33.9629C 82.1719 33.9629 82.8691 33.7051 83.5488 33.1895C 84.2285 32.6738 84.832 31.959 85.3594 31.0449C 85.8867 30.1191 86.3086 29.0234 86.625 27.7578C 86.9531 26.4805 87.1172 25.0918 87.1172 23.5918C 87.1172 21.8691 86.8594 20.2695 86.3438 18.793C 85.8398 17.3164 85.1016 16.0449 84.1289 14.9785C 83.168 13.9004 81.9785 13.0566 80.5605 12.4473C 79.1543 11.8379 77.543 11.5332 75.7266 11.5332C 74.2852 11.5332 72.9141 11.7383 71.6133 12.1484C 70.3125 12.5586 69.0996 13.1328 67.9746 13.8711C 66.8613 14.6094 65.8535 15.4941 64.9512 16.5254C 64.0488 17.5449 63.2754 18.6758 62.6309 19.918C 61.998 21.1602 61.5059 22.4844 61.1543 23.8906C 60.8145 25.2969 60.6445 26.7559 60.6445 28.2676C 60.6445 29.9902 60.8789 31.5957 61.3477 33.084C 61.8164 34.5723 62.5137 35.8613 63.4395 36.9512C 64.3652 38.0527 65.5078 38.9141 66.8672 39.5352C 68.2383 40.1562 69.8262 40.4668 71.6309 40.4668C 72.2871 40.4668 72.9258 40.4199 73.5469 40.3262C 74.1797 40.2441 74.7773 40.1328 75.3398 39.9922C 75.9023 39.8516 76.418 39.6875 76.8867 39.5C 77.3672 39.3125 77.7773 39.1191 78.1172 38.9199L 78.8379 40.5723C 78.2754 40.9121 77.6777 41.2051 77.0449 41.4512C 76.4121 41.709 75.7676 41.9199 75.1113 42.084C 74.4668 42.248 73.8223 42.3652 73.1777 42.4355C 72.5449 42.5176 71.9355 42.5586 71.3496 42.5586C 69.2754 42.5586 67.4355 42.2012 65.8301 41.4863C 64.2246 40.7715 62.8711 39.7871 61.7695 38.5332C 60.6797 37.2793 59.8477 35.8027 59.2734 34.1035C 58.6992 32.3926 58.4121 30.541 58.4121 28.5488C 58.4121 26.8379 58.6172 25.1797 59.0273 23.5742C 59.4375 21.957 60.0176 20.4395 60.7676 19.0215C 61.5293 17.6035 62.4434 16.3086 63.5098 15.1367C 64.5762 13.9648 65.7598 12.957 67.0605 12.1133C 68.3613 11.2695 69.7676 10.6133 71.2793 10.1445C 72.791 9.67578 74.373 9.44141 76.0254 9.44141C 78.0996 9.44141 79.957 9.79297 81.5977 10.4961C 83.25 11.1992 84.6504 12.1719 85.7988 13.4141C 86.9473 14.6445 87.8262 16.1035 88.4355 17.791C 89.0449 19.4785 89.3496 21.3125 89.3496 23.293C 89.3496 24.2422 89.2734 25.2148 89.1211 26.2109C 88.9688 27.1953 88.7402 28.1562 88.4355 29.0938C 88.1309 30.0312 87.75 30.9102 87.293 31.7305C 86.8359 32.5508 86.2969 33.2715 85.6758 33.8926C 85.0664 34.5137 84.375 35 83.6016 35.3516C 82.8281 35.7148 81.9727 35.8965 81.0352 35.8965C 80.3906 35.8965 79.8281 35.8262 79.3477 35.6855C 78.8672 35.5449 78.4453 35.3516 78.082 35.1055C 77.7305 34.8711 77.4258 34.5898 77.168 34.2617C 76.9219 33.9219 76.7109 33.5586 76.5352 33.1719C 75.9375 33.8398 75.2402 34.373 74.4434 34.7715C 73.6465 35.1582 72.8027 35.3516 71.9121 35.3516L 71.3848 35.3516C 70.7168 35.3516 70.1016 35.2344 69.5391 35C 68.9883 34.7656 68.5078 34.4492 68.0977 34.0508C 67.6992 33.6406 67.3828 33.1602 67.1484 32.6094C 66.9258 32.0586 66.8145 31.4609 66.8145 30.8164C 66.8145 30.6875 66.8145 30.5645 66.8145 30.4473C 66.8145 30.3184 66.8262 30.1895 66.8496 30.0605L 67.957 21.9395C 68.0625 21.2129 68.2969 20.5273 68.6602 19.8828C 69.0352 19.2383 69.498 18.6758 70.0488 18.1953C 70.5996 17.7148 71.2148 17.3398 71.8945 17.0703C 72.5859 16.7891 73.2891 16.6484 74.0039 16.6484L 74.5488 16.6484C 75.4277 16.6484 76.2129 16.8477 76.9043 17.2461C 77.5957 17.6328 78.1289 18.1602 78.5039 18.8281L 79.9805 17L 80.7012 17L 78.8379 30.5352ZM 68.959 30.1836C 68.959 30.2539 68.9531 30.3242 68.9414 30.3945C 68.9297 30.4648 68.9238 30.5352 68.9238 30.6055C 68.9238 30.9922 68.9883 31.3496 69.1172 31.6777C 69.2578 32.0059 69.4512 32.293 69.6973 32.5391C 69.9434 32.7852 70.2305 32.9785 70.5586 33.1191C 70.8984 33.248 71.2676 33.3125 71.666 33.3125L 73.1074 33.3125C 73.541 33.3125 73.957 33.2305 74.3555 33.0664C 74.7539 32.9023 75.1113 32.6797 75.4277 32.3984C 75.7559 32.1172 76.0254 31.7891 76.2363 31.4141C 76.459 31.0273 76.6055 30.6172 76.6758 30.1836L 77.8535 21.8164C 77.877 21.7461 77.8887 21.6699 77.8887 21.5879C 77.8887 21.5059 77.8887 21.4297 77.8887 21.3594C 77.8887 20.9844 77.8184 20.6328 77.6777 20.3047C 77.5488 19.9766 77.3613 19.6953 77.1152 19.4609C 76.8809 19.2148 76.5938 19.0273 76.2539 18.8984C 75.9258 18.7578 75.5625 18.6875 75.1641 18.6875L 73.7227 18.6875C 73.2891 18.6875 72.8672 18.7695 72.457 18.9336C 72.0586 19.0977 71.6953 19.3203 71.3672 19.6016C 71.0508 19.8828 70.7812 20.2168 70.5586 20.6035C 70.3477 20.9785 70.2129 21.3828 70.1543 21.8164L 68.959 30.1836ZM 113.027 35L 113.027 21.8164C 113.027 21.3828 112.945 20.9785 112.781 20.6035C 112.617 20.2168 112.395 19.8828 112.113 19.6016C 111.832 19.3203 111.498 19.0977 111.111 18.9336C 110.736 18.7695 110.332 18.6875 109.898 18.6875L 108.826 18.6875C 108.393 18.6875 107.982 18.7695 107.596 18.9336C 107.221 19.0977 106.887 19.3203 106.594 19.6016C 106.312 19.8828 106.09 20.2168 105.926 20.6035C 105.762 20.9785 105.68 21.3828 105.68 21.8164L 105.68 35L 103.535 35L 103.535 21.8164C 103.535 21.3828 103.453 20.9785 103.289 20.6035C 103.125 20.2168 102.896 19.8828 102.604 19.6016C 102.322 19.3203 101.988 19.0977 101.602 18.9336C 101.227 18.7695 100.822 18.6875 100.389 18.6875L 99.3164 18.6875C 98.8828 18.6875 98.4727 18.7695 98.0859 18.9336C 97.7109 19.0977 97.3828 19.3203 97.1016 19.6016C 96.8203 19.8828 96.5977 20.2168 96.4336 20.6035C 96.2695 20.9785 96.1875 21.3828 96.1875 21.8164L 96.1875 35L 94.0254 35L 94.0254 17L 94.7461 17L 95.9238 18.8281C 96.416 18.1602 97.0312 17.6328 97.7695 17.2461C 98.5195 16.8477 99.334 16.6484 100.213 16.6484L 100.389 16.6484C 101.408 16.6484 102.328 16.9004 103.148 17.4043C 103.969 17.9082 104.602 18.5762 105.047 19.4082C 105.27 18.998 105.545 18.623 105.873 18.2832C 106.201 17.9434 106.564 17.6562 106.963 17.4219C 107.361 17.1758 107.795 16.9883 108.264 16.8594C 108.732 16.7188 109.219 16.6484 109.723 16.6484L 109.898 16.6484C 110.625 16.6484 111.311 16.7891 111.955 17.0703C 112.6 17.3398 113.162 17.7148 113.643 18.1953C 114.123 18.6758 114.498 19.2383 114.768 19.8828C 115.049 20.5273 115.189 21.2129 115.189 21.9395L 115.189 35L 113.027 35ZM 130.816 35L 129.621 33.207C 129.129 33.8516 128.514 34.373 127.775 34.7715C 127.037 35.1582 126.229 35.3516 125.35 35.3516L 124.805 35.3516C 124.078 35.3516 123.393 35.2168 122.748 34.9473C 122.104 34.666 121.541 34.2852 121.061 33.8047C 120.58 33.3242 120.199 32.7617 119.918 32.1172C 119.648 31.4727 119.514 30.7871 119.514 30.0605L 119.514 29.8848C 119.514 29.1582 119.648 28.4727 119.918 27.8281C 120.199 27.1836 120.58 26.6211 121.061 26.1406C 121.541 25.6602 122.104 25.2852 122.748 25.0156C 123.393 24.7344 124.078 24.5938 124.805 24.5938L 129.375 24.5938L 129.375 21.8164C 129.375 21.3828 129.293 20.9785 129.129 20.6035C 128.965 20.2168 128.742 19.8828 128.461 19.6016C 128.18 19.3203 127.846 19.0977 127.459 18.9336C 127.084 18.7695 126.68 18.6875 126.246 18.6875L 124.98 18.6875C 124.547 18.6875 124.137 18.7695 123.75 18.9336C 123.375 19.0977 123.047 19.3203 122.766 19.6016C 122.484 19.8828 122.262 20.2168 122.098 20.6035C 121.934 20.9785 121.852 21.3828 121.852 21.8164L 121.852 22.4668L 119.689 22.1152L 119.689 21.9395C 119.689 21.2129 119.824 20.5273 120.094 19.8828C 120.375 19.2383 120.756 18.6758 121.236 18.1953C 121.717 17.7148 122.279 17.3398 122.924 17.0703C 123.568 16.7891 124.254 16.6484 124.98 16.6484L 126.246 16.6484C 126.973 16.6484 127.658 16.7891 128.303 17.0703C 128.947 17.3398 129.51 17.7148 129.99 18.1953C 130.471 18.6758 130.846 19.2383 131.115 19.8828C 131.396 20.5273 131.537 21.2129 131.537 21.9395L 131.537 35L 130.816 35ZM 129.375 26.2812L 124.805 26.2812C 124.371 26.2812 123.961 26.3633 123.574 26.5273C 123.199 26.6914 122.871 26.9199 122.59 27.2129C 122.309 27.4941 122.086 27.8281 121.922 28.2148C 121.758 28.5898 121.676 28.9941 121.676 29.4277L 121.676 30.1836C 121.676 30.6172 121.758 31.0273 121.922 31.4141C 122.086 31.7891 122.309 32.1172 122.59 32.3984C 122.871 32.6797 123.199 32.9023 123.574 33.0664C 123.961 33.2305 124.371 33.3125 124.805 33.3125L 126.246 33.3125C 126.68 33.3125 127.084 33.2305 127.459 33.0664C 127.846 32.9023 128.18 32.6797 128.461 32.3984C 128.742 32.1172 128.965 31.7891 129.129 31.4141C 129.293 31.0273 129.375 30.6172 129.375 30.1836L 129.375 26.2812ZM 142.418 35C 141.762 35 141.141 34.877 140.555 34.6309C 139.98 34.3848 139.477 34.0449 139.043 33.6113C 138.621 33.1777 138.281 32.6738 138.023 32.0996C 137.777 31.5254 137.654 30.9102 137.654 30.2539L 137.654 19.0566L 134.42 19.0566L 134.42 17L 137.654 17L 137.654 12.6758L 139.816 12.3242L 139.816 17L 144.387 17L 144.387 19.0566L 139.816 19.0566L 139.816 30.3594C 139.816 30.7227 139.881 31.0625 140.01 31.3789C 140.15 31.6836 140.338 31.9531 140.572 32.1875C 140.807 32.4219 141.082 32.6094 141.398 32.75C 141.715 32.8789 142.055 32.9434 142.418 32.9434L 144.387 32.9434L 144.387 35L 142.418 35ZM 158.238 35L 158.238 21.8164C 158.238 21.3828 158.156 20.9785 157.992 20.6035C 157.828 20.2168 157.605 19.8828 157.324 19.6016C 157.043 19.3203 156.709 19.0977 156.322 18.9336C 155.947 18.7695 155.543 18.6875 155.109 18.6875L 153.668 18.6875C 153.234 18.6875 152.824 18.7695 152.438 18.9336C 152.062 19.0977 151.734 19.3203 151.453 19.6016C 151.172 19.8828 150.949 20.2168 150.785 20.6035C 150.621 20.9785 150.539 21.3828 150.539 21.8164L 150.539 35L 148.377 35L 148.377 9.79297L 150.539 9.79297L 150.539 18.5117C 151.031 17.9258 151.623 17.4688 152.314 17.1406C 153.006 16.8125 153.756 16.6484 154.564 16.6484L 155.109 16.6484C 155.836 16.6484 156.521 16.7891 157.166 17.0703C 157.811 17.3398 158.373 17.7148 158.854 18.1953C 159.334 18.6758 159.709 19.2383 159.979 19.8828C 160.26 20.5273 160.4 21.2129 160.4 21.9395L 160.4 35L 158.238 35ZM 176.748 30.0605C 176.748 30.7871 176.607 31.4727 176.326 32.1172C 176.057 32.7617 175.682 33.3242 175.201 33.8047C 174.721 34.2852 174.158 34.666 173.514 34.9473C 172.869 35.2168 172.184 35.3516 171.457 35.3516L 170.016 35.3516C 169.289 35.3516 168.604 35.2168 167.959 34.9473C 167.314 34.666 166.752 34.2852 166.271 33.8047C 165.791 33.3242 165.41 32.7617 165.129 32.1172C 164.859 31.4727 164.725 30.7871 164.725 30.0605L 164.725 21.9395C 164.725 21.2129 164.859 20.5273 165.129 19.8828C 165.41 19.2383 165.791 18.6758 166.271 18.1953C 166.752 17.7148 167.314 17.3398 167.959 17.0703C 168.604 16.7891 169.289 16.6484 170.016 16.6484L 171.457 16.6484C 172.184 16.6484 172.869 16.7891 173.514 17.0703C 174.158 17.3398 174.721 17.7148 175.201 18.1953C 175.682 18.6758 176.057 19.2383 176.326 19.8828C 176.607 20.5273 176.748 21.2129 176.748 21.9395L 176.748 30.0605ZM 174.586 21.8164C 174.586 21.3828 174.504 20.9785 174.34 20.6035C 174.176 20.2168 173.953 19.8828 173.672 19.6016C 173.391 19.3203 173.057 19.0977 172.67 18.9336C 172.295 18.7695 171.891 18.6875 171.457 18.6875L 170.016 18.6875C 169.582 18.6875 169.172 18.7695 168.785 18.9336C 168.41 19.0977 168.082 19.3203 167.801 19.6016C 167.52 19.8828 167.297 20.2168 167.133 20.6035C 166.969 20.9785 166.887 21.3828 166.887 21.8164L 166.887 30.1836C 166.887 30.6172 166.969 31.0273 167.133 31.4141C 167.297 31.7891 167.52 32.1172 167.801 32.3984C 168.082 32.6797 168.41 32.9023 168.785 33.0664C 169.172 33.2305 169.582 33.3125 170.016 33.3125L 171.457 33.3125C 171.891 33.3125 172.295 33.2305 172.67 33.0664C 173.057 32.9023 173.391 32.6797 173.672 32.3984C 173.953 32.1172 174.176 31.7891 174.34 31.4141C 174.504 31.0273 174.586 30.6172 174.586 30.1836L 174.586 21.8164ZM 181.248 35L 181.248 32.293L 183.955 32.293L 183.955 35L 181.248 35ZM 207.457 35L 207.457 21.8164C 207.457 21.3828 207.375 20.9785 207.211 20.6035C 207.047 20.2168 206.824 19.8828 206.543 19.6016C 206.262 19.3203 205.928 19.0977 205.541 18.9336C 205.166 18.7695 204.762 18.6875 204.328 18.6875L 203.256 18.6875C 202.822 18.6875 202.412 18.7695 202.025 18.9336C 201.65 19.0977 201.316 19.3203 201.023 19.6016C 200.742 19.8828 200.52 20.2168 200.355 20.6035C 200.191 20.9785 200.109 21.3828 200.109 21.8164L 200.109 35L 197.965 35L 197.965 21.8164C 197.965 21.3828 197.883 20.9785 197.719 20.6035C 197.555 20.2168 197.326 19.8828 197.033 19.6016C 196.752 19.3203 196.418 19.0977 196.031 18.9336C 195.656 18.7695 195.252 18.6875 194.818 18.6875L 193.746 18.6875C 193.312 18.6875 192.902 18.7695 192.516 18.9336C 192.141 19.0977 191.812 19.3203 191.531 19.6016C 191.25 19.8828 191.027 20.2168 190.863 20.6035C 190.699 20.9785 190.617 21.3828 190.617 21.8164L 190.617 35L 188.455 35L 188.455 17L 189.176 17L 190.354 18.8281C 190.846 18.1602 191.461 17.6328 192.199 17.2461C 192.949 16.8477 193.764 16.6484 194.643 16.6484L 194.818 16.6484C 195.838 16.6484 196.758 16.9004 197.578 17.4043C 198.398 17.9082 199.031 18.5762 199.477 19.4082C 199.699 18.998 199.975 18.623 200.303 18.2832C 200.631 17.9434 200.994 17.6562 201.393 17.4219C 201.791 17.1758 202.225 16.9883 202.693 16.8594C 203.162 16.7188 203.648 16.6484 204.152 16.6484L 204.328 16.6484C 205.055 16.6484 205.74 16.7891 206.385 17.0703C 207.029 17.3398 207.592 17.7148 208.072 18.1953C 208.553 18.6758 208.928 19.2383 209.197 19.8828C 209.479 20.5273 209.619 21.2129 209.619 21.9395L 209.619 35L 207.457 35ZM 225.967 30.0605C 225.967 30.7871 225.826 31.4727 225.545 32.1172C 225.275 32.7617 224.9 33.3242 224.42 33.8047C 223.939 34.2852 223.377 34.666 222.732 34.9473C 222.088 35.2168 221.402 35.3516 220.676 35.3516L 219.234 35.3516C 218.508 35.3516 217.822 35.2168 217.178 34.9473C 216.533 34.666 215.971 34.2852 215.49 33.8047C 215.01 33.3242 214.629 32.7617 214.348 32.1172C 214.078 31.4727 213.943 30.7871 213.943 30.0605L 213.943 21.9395C 213.943 21.2129 214.078 20.5273 214.348 19.8828C 214.629 19.2383 215.01 18.6758 215.49 18.1953C 215.971 17.7148 216.533 17.3398 217.178 17.0703C 217.822 16.7891 218.508 16.6484 219.234 16.6484L 220.676 16.6484C 221.402 16.6484 222.088 16.7891 222.732 17.0703C 223.377 17.3398 223.939 17.7148 224.42 18.1953C 224.9 18.6758 225.275 19.2383 225.545 19.8828C 225.826 20.5273 225.967 21.2129 225.967 21.9395L 225.967 26.1758L 216.105 26.1758L 216.105 30.1836C 216.105 30.6172 216.188 31.0273 216.352 31.4141C 216.516 31.7891 216.738 32.1172 217.02 32.3984C 217.301 32.6797 217.629 32.9023 218.004 33.0664C 218.391 33.2305 218.801 33.3125 219.234 33.3125L 220.676 33.3125C 221.109 33.3125 221.514 33.2305 221.889 33.0664C 222.275 32.9023 222.609 32.6797 222.891 32.3984C 223.172 32.1172 223.395 31.7891 223.559 31.4141C 223.723 31.0273 223.805 30.6172 223.805 30.1836L 223.805 28.9883L 225.967 29.3398L 225.967 30.0605ZM 223.805 21.8164C 223.805 21.3828 223.723 20.9785 223.559 20.6035C 223.395 20.2168 223.172 19.8828 222.891 19.6016C 222.609 19.3203 222.275 19.0977 221.889 18.9336C 221.514 18.7695 221.109 18.6875 220.676 18.6875L 219.234 18.6875C 218.801 18.6875 218.391 18.7695 218.004 18.9336C 217.629 19.0977 217.301 19.3203 217.02 19.6016C 216.738 19.8828 216.516 20.2168 216.352 20.6035C 216.188 20.9785 216.105 21.3828 216.105 21.8164L 216.105 24.4883L 223.805 24.4883L 223.805 21.8164Z"/></defs></svg>