<svg width="31" height="30" viewBox="0 0 31 30" version="1.1" xmlns="http://www.w3.org/2000/svg" xmlns:xlink="http://www.w3.org/1999/xlink"><title>folders</title><g transform="translate(705 -2147)"><g><g><g><use xlink:href="#path-portfolio0" transform="translate(-705 2147)"/></g><g><use xlink:href="#path-portfolio1" transform="translate(-705 2151.24)"/></g></g></g></g><defs><path id="path-portfolio0" d="M 0.630842 3.68919C 0.979172 3.68919 1.26168 3.40433 1.26168 3.05287C 1.26168 2.07123 2.05339 1.27265 3.02657 1.27265L 8.66998 1.27265L 13.1114 6.16672C 13.231 6.29843 13.3998 6.37342 13.5768 6.37342L 27.9734 6.37342C 28.9466 6.37342 29.7383 7.172 29.7383 8.15364C 29.7383 8.5051 30.0208 8.78996 30.3692 8.78996C 30.7175 8.78996 31 8.5051 31 8.15364C 31 6.47024 29.6423 5.10077 27.9734 5.10077L 13.8544 5.10077L 9.41311 0.206699C 9.29357 0.0749801 9.12471 2.18464e-08 8.94776 2.18464e-08L 3.02657 2.18464e-08C 1.35768 2.18464e-08 0 1.36947 0 3.05287C 0 3.40422 0.282512 3.68919 0.630842 3.68919Z"/><path id="path-portfolio1" d="M 27.9733 5.10077L 13.8544 5.10077L 9.41311 0.206699C 9.29357 0.0749802 9.12471 -6.14937e-08 8.94776 -6.14937e-08L 3.02657 -6.14937e-08C 1.35768 -6.14937e-08 0 1.36947 0 3.05276L 0 15.6337C 0 15.9851 0.282512 16.27 0.630842 16.27C 0.979172 16.27 1.26168 15.9851 1.26168 15.6337L 1.26168 3.05276C 1.26168 2.07113 2.05339 1.27254 3.02657 1.27254L 8.66998 1.27254L 13.1114 6.16661C 13.231 6.29833 13.3998 6.37331 13.5768 6.37331L 27.9734 6.37331C 28.9466 6.37331 29.7383 7.1719 29.7383 8.15353L 29.7383 22.7024C 29.7383 23.684 28.9466 24.4827 27.9734 24.4827L 3.02657 24.4827C 2.05339 24.4827 1.26168 23.6841 1.26168 22.7024C 1.26168 22.3511 0.979172 22.0661 0.630842 22.0661C 0.282512 22.0661 0 22.3511 0 22.7024C 0 24.3858 1.35768 25.7553 3.02657 25.7553L 27.9733 25.7553C 29.6422 25.7553 30.9999 24.3858 30.9999 22.7024L 30.9999 8.15364C 30.9999 6.47024 29.6422 5.10077 27.9733 5.10077Z"/></defs></svg>