<?xml version="1.0" encoding="UTF-8" standalone="no"?>
<svg height="60px" width="60px" version="1.1" xmlns="http://www.w3.org/2000/svg" xmlns:xlink="http://www.w3.org/1999/xlink" xmlns:sketch="http://www.bohemiancoding.com/sketch/ns">
    <g id="Google +">
        <path d="M0.11416185,30 C0.11416185,13.4314567 13.5650282,1.42108547e-14 30.1575145,1.42108547e-14 C46.7500007,1.42108547e-14 60.2008671,13.4314567 60.2008671,30 C60.2008671,46.5685433 46.7500007,60 30.1575145,60 C13.5650282,60 0.11416185,46.5685433 0.11416185,30 Z M0.11416185,30" fill="#555"></path>
        <path d="M59.2673633,23.0943 L52.162718,23.0943 L52.162718,30.977028 L48.81389,30.977028 L48.81389,23.0943 L41,23.0943 L41,19.81347 L48.81389,19.81347 L48.81389,12 L52.162718,12 L52.162718,19.81347 L58.1281705,19.81347 C58.5687694,20.8776397 58.9498961,21.9726805 59.2673633,23.0943 Z M59.2673633,23.0943" id="Shape" fill="#FFFFFF"></path>
        <path d="M8.36751114,49.4151658 C9.20757641,48.0045129 10.5101616,46.6176234 12.439863,45.4779226 C16.7939334,42.8139603 22.6580861,42.4621162 25.8292588,42.2610624 C24.8477054,41.0044764 23.7151437,39.6724953 23.7151437,37.4860357 C23.7151437,36.3048449 24.0674962,35.6011567 24.4198487,34.77181 C23.6396396,34.8472051 22.8845985,34.9226003 22.1798934,34.9226003 C14.7553224,34.9226003 10.5522602,29.3936219 10.5522602,23.9400388 C10.5522602,20.7231786 12.0371744,17.1494481 15.0321708,14.5633941 C19.0338888,11.2786783 23.7906478,10.718241 27.5658534,10.718241 L41.9871387,10.718241 L37.5072281,13.2339261 L33.1783257,13.2339261 C34.7890801,14.5633941 38.136429,17.3605545 38.136429,22.6834528 C38.136429,27.860587 35.1917687,30.2983638 32.2722764,32.6104821 C31.341059,33.515224 30.3091694,34.495361 30.3091694,36.0283959 C30.3091694,37.5614308 31.341059,38.4159093 32.1212681,39.0442023 L34.6380719,41.0044764 C37.7337404,43.5679119 40.5273926,45.9554252 40.5273926,50.7807154 C40.5273926,53.9628155 39.0402571,57.1566546 36.1426841,59.6077057 C34.5836462,59.8615138 32.9843015,59.9954999 31.3544396,59.9998886 C34.2967013,58.7111083 35.8209696,56.3530765 35.8209696,53.5200729 C35.8209696,49.9513687 33.5306782,48.0664897 28.1950543,44.2716 C27.6413575,44.2213366 27.289005,44.2213366 26.5842999,44.2213366 C25.955099,44.2213366 22.1798934,44.3469952 19.2352331,45.3271322 C17.6999828,45.8800301 13.2200722,47.5638553 13.2200722,52.5399358 C13.2200722,53.0807141 13.2777239,53.6050014 13.3902067,54.1099484 C6.01085155,48.6437279 9.20757647,49.4151671 8.36751114,49.4151658 Z M31.9702599,25.9003129 C31.9702599,20.8488372 28.9752635,13.0253329 23.1614469,13.0253329 C21.3493482,13.0253329 19.3862413,13.9351011 18.2536796,15.3349379 C17.0707819,16.8026303 16.7184293,18.6875093 16.7184293,20.4969931 C16.7184293,25.1966247 19.4365774,32.9623261 25.4769063,32.9623261 C27.2135009,32.9623261 29.1011037,32.1078477 30.2336653,31.002052 C31.8444197,29.3936219 31.9702599,27.1568989 31.9702599,25.9003129 Z M31.9702599,25.9003129" id="Path" fill="#FFFFFF"></path>
        <path d="M60.2673633,30.180589 C60.2673633,46.7491323 46.816497,60.180589 30.2240107,60.180589 C24.0702505,60.180589 18.3486179,58.3331023 13.5851475,55.1633644 L48.0097059,6 C55.4434689,11.4612393 60.2673633,20.2583863 60.2673633,30.180589 Z M60.2673633,30.180589" id="reflec" fill-opacity="0.08" fill="#555"></path>
    </g>
</svg>