<?xml version="1.0" encoding="UTF-8" standalone="no"?>
<svg height="60px" width="60px" version="1.1" xmlns="http://www.w3.org/2000/svg" xmlns:xlink="http://www.w3.org/1999/xlink" xmlns:sketch="http://www.bohemiancoding.com/sketch/ns">
    <g id="LinkedIN">
        <path d="M0.456647399,30 C0.456647399,13.4314567 13.9075137,0 30.5,0 C47.0924863,0 60.5433526,13.4314567 60.5433526,30 C60.5433526,46.5685433 47.0924863,60 30.5,60 C13.9075137,60 0.456647399,46.5685433 0.456647399,30 Z M0.456647399,30" fill="#555"></path>
        <path d="M22.8425065,23.7098144 L16.0438505,23.7098144 L16.0438505,44.1369537 L22.8425065,44.1369537 L22.8425065,23.7098144 Z M22.8425065,23.7098144" id="Path" fill="#FFFFFF"></path>
        <path d="M23.2902832,17.3908761 C23.2461572,15.3880081 21.8138965,13.862504 19.4881191,13.862504 C17.1623417,13.862504 15.6418291,15.3880081 15.6418291,17.3908761 C15.6418291,19.3522579 17.1174011,20.9216886 19.3998672,20.9216886 L19.4433143,20.9216886 C21.8138965,20.9216886 23.2902832,19.3522579 23.2902832,17.3908761 Z M23.2902832,17.3908761" id="Path" fill="#FFFFFF"></path>
        <path d="M47.3610611,32.4246563 C47.3610611,26.1503226 44.007081,23.2301456 39.5332519,23.2301456 C35.9236128,23.2301456 34.3075166,25.2128128 33.4051747,26.6036896 L33.4051747,23.7103567 L26.605704,23.7103567 C26.6953136,25.6271338 26.605704,44.137496 26.605704,44.137496 L33.4051747,44.137496 L33.4051747,32.7292961 C33.4051747,32.1187963 33.4493006,31.5097877 33.629063,31.0726898 C34.1204225,29.8530458 35.2391853,28.5902885 37.1174576,28.5902885 C39.5785998,28.5902885 40.562405,30.4634101 40.562405,33.2084226 L40.562405,44.1369537 L47.3607895,44.1369537 L47.3610611,32.4246563 Z M47.3610611,32.4246563" id="Path" fill="#FFFFFF"></path>
        <path d="M60.5433526,30 C60.5433526,46.5685433 47.0924863,60 30.5,60 C24.3462399,60 18.6246072,58.1525134 13.8611369,54.9827754 L48.2856952,5.81941103 C55.7194582,11.2806503 60.5433526,20.0777973 60.5433526,30 Z M60.5433526,30" id="reflec" fill-opacity="0.08" fill="#555"></path>
    </g>
</svg>