<svg width="33" height="33" viewBox="0 0 33 33" version="1.1" xmlns="http://www.w3.org/2000/svg" xmlns:xlink="http://www.w3.org/1999/xlink">
<title>user</title>
<g id="Canvas" transform="translate(706 -2073)">
<g id="user">
<g id="Vector">
<use xlink:href="#path-about" transform="translate(-706 2073)"/>
</g>
</g>
</g>
<defs>
<path id="path-about" d="M 28.1693 4.82725C 21.7353 -1.60908 11.2662 -1.60908 4.83222 4.82725C 2.57479 7.08546 1.03062 9.92246 0.366499 13.0317C -0.280048 16.0592 -0.0682636 19.1958 0.978905 22.1023C 1.10472 22.4514 1.48967 22.6323 1.83847 22.5066C 2.18749 22.3807 2.36838 21.9957 2.24256 21.6467C 1.28046 18.9762 1.08592 16.0943 1.68008 13.3123C 2.2898 10.4574 3.70826 7.8517 5.782 5.77725C 11.6924 -0.135154 21.3092 -0.135154 27.2196 5.77725C 30.0342 8.59298 31.6098 12.3358 31.6561 16.3164C 31.7023 20.2897 30.222 24.0624 27.4882 26.9392C 27.4559 26.9733 27.4238 27.0075 27.3918 27.0418C 27.3352 27.1024 27.2787 27.1631 27.2196 27.2222C 21.3092 33.1346 11.6924 33.1346 5.782 27.2222C 5.75054 27.1907 5.71987 27.1587 5.68954 27.1267C 5.68797 27.0646 5.68663 27.0035 5.68663 26.9433C 5.68663 26.808 5.6892 26.6733 5.69413 26.539C 5.69581 26.4941 5.69917 26.4497 5.7014 26.4049C 5.70577 26.3156 5.70991 26.2264 5.7164 26.1376C 5.72032 26.0846 5.72603 26.0322 5.73073 25.9795C 5.73778 25.8994 5.74439 25.8194 5.75312 25.7397C 5.75928 25.6835 5.76733 25.6278 5.77439 25.5718C 5.7839 25.4962 5.79297 25.4204 5.80416 25.3451C 5.81267 25.2878 5.82274 25.231 5.83215 25.174C 5.84412 25.1007 5.85576 25.0274 5.86931 24.9545C 5.87994 24.8968 5.89214 24.8397 5.90379 24.7824C 5.91823 24.7108 5.93244 24.6391 5.94834 24.568C 5.96121 24.5104 5.97554 24.453 5.98931 24.3957C 6.0061 24.3257 6.02277 24.2557 6.04091 24.1863C 6.05602 24.1288 6.07236 24.0717 6.08826 24.0144C 6.1074 23.9459 6.12643 23.8773 6.14691 23.8092C 6.16404 23.7521 6.1824 23.6954 6.20053 23.6388C 6.22202 23.5715 6.24351 23.504 6.26624 23.4373C 6.28549 23.381 6.30564 23.325 6.32579 23.269C 6.34963 23.2027 6.37358 23.1364 6.39866 23.0706C 6.41993 23.0149 6.44198 22.9599 6.46414 22.9046C 6.49022 22.8396 6.51653 22.7745 6.54384 22.71C 6.56712 22.6552 6.59108 22.6007 6.61526 22.5463C 6.64358 22.4824 6.67223 22.4187 6.70178 22.3554C 6.72697 22.3015 6.75271 22.248 6.7788 22.1946C 6.80947 22.1318 6.84047 22.0691 6.87226 22.0069C 6.89924 21.9543 6.92666 21.9019 6.95454 21.8497C 6.98745 21.7879 7.02091 21.7263 7.05506 21.6651C 7.08382 21.6136 7.11293 21.5623 7.14248 21.5113C 7.17763 21.4508 7.21333 21.3905 7.24971 21.3305C 7.28027 21.2801 7.31117 21.2299 7.34251 21.18C 7.3799 21.1207 7.41784 21.0616 7.45635 21.0031C 7.48859 20.9539 7.52105 20.905 7.55407 20.8564C 7.59358 20.7982 7.63399 20.7406 7.67474 20.6832C 7.70865 20.6354 7.74257 20.5877 7.77727 20.5405C 7.81902 20.4836 7.86167 20.4273 7.90454 20.3713C 7.94003 20.325 7.9754 20.2786 8.01167 20.2328C 8.05566 20.1772 8.10066 20.1222 8.14577 20.0674C 8.18259 20.0226 8.21942 19.9778 8.25703 19.9336C 8.30337 19.8792 8.35072 19.8256 8.39818 19.772C 8.43647 19.7288 8.47453 19.6855 8.51348 19.6429C 8.56206 19.5898 8.61165 19.5378 8.66135 19.4857C 8.70097 19.4441 8.74038 19.4023 8.78067 19.3612C 8.8316 19.3095 8.88365 19.2588 8.93559 19.208C 8.97634 19.1683 9.01675 19.1281 9.05816 19.0889C 9.11167 19.0383 9.16641 18.9889 9.22092 18.9394C 9.26256 18.9016 9.30364 18.8635 9.34584 18.8263C 9.40214 18.7767 9.4599 18.7285 9.51733 18.68C 9.55942 18.6445 9.60106 18.6085 9.6437 18.5736C 9.70314 18.525 9.76404 18.4778 9.82471 18.4303C 9.86702 18.3973 9.90866 18.3635 9.95142 18.331C 10.0153 18.2825 10.0806 18.2357 10.1457 18.1887C 10.1868 18.1589 10.2271 18.1285 10.2688 18.0992C 10.3406 18.0487 10.4142 18 10.4875 17.9511C 10.5236 17.927 10.559 17.902 10.5954 17.8783C 10.691 17.8162 10.7883 17.756 10.8862 17.6967C 10.9014 17.6875 10.9162 17.6776 10.9315 17.6685C 11.0448 17.6006 11.1597 17.5348 11.2759 17.4707C 11.3156 17.4489 11.3564 17.4284 11.3966 17.407C 11.4738 17.3658 11.5507 17.3242 11.6291 17.2848C 11.6794 17.2595 11.7309 17.2358 11.7816 17.2113C 11.8456 17.1802 11.9094 17.1489 11.9742 17.119C 13.1915 18.2822 14.8154 18.9407 16.5009 18.9407C 18.1865 18.9407 19.8105 18.2821 21.0278 17.1188C 23.4041 18.2189 25.349 20.1929 26.4049 22.5935C 26.5542 22.933 26.9504 23.0874 27.2901 22.9379C 27.6296 22.7884 27.7837 22.3919 27.6343 22.0524C 26.4793 19.4266 24.4686 17.3283 21.9235 16.0616C 22.6619 14.978 23.0615 13.6985 23.0615 12.3781C 23.0615 8.75937 20.1184 5.81532 16.5009 5.81532C 16.1301 5.81532 15.8293 6.1162 15.8293 6.48717C 15.8293 6.85815 16.1301 7.15902 16.5009 7.15902C 19.3778 7.15902 21.7182 9.50031 21.7182 12.3781C 21.7182 13.6649 21.2401 14.904 20.3722 15.8669C 20.3721 15.867 20.3719 15.8671 20.3718 15.8672C 19.3807 16.9666 17.9699 17.5971 16.5008 17.5971C 15.0318 17.5971 13.6208 16.9666 12.6298 15.8672C 12.6297 15.867 12.6295 15.8669 12.6293 15.8668C 11.7614 14.9036 11.2835 13.6648 11.2835 12.3782C 11.2835 10.9736 11.8332 9.65585 12.8314 8.668C 13.0952 8.40699 13.0974 7.98159 12.8365 7.71789C 12.5757 7.45397 12.1504 7.45195 11.8867 7.71274C 10.6315 8.95455 9.94023 10.6114 9.94023 12.3777C 9.94023 13.6968 10.3387 14.9755 11.0759 16.0585C 11.0693 16.0617 11.063 16.0653 11.0565 16.0687C 11.0041 16.0949 10.9529 16.1226 10.901 16.1494C 10.8214 16.1906 10.7416 16.2316 10.6631 16.2745C 10.6076 16.3047 10.5533 16.3365 10.4983 16.3675C 10.425 16.4091 10.3516 16.4504 10.2793 16.4933C 10.2232 16.5266 10.168 16.5611 10.1125 16.5953C 10.0431 16.6381 9.97369 16.6807 9.9053 16.7247C 9.84944 16.7607 9.7946 16.7976 9.73941 16.8344C 9.67303 16.8786 9.60677 16.923 9.54139 16.9685C 9.48643 17.0068 9.43214 17.0459 9.37785 17.085C 9.31405 17.131 9.25047 17.1772 9.18767 17.2244C 9.13383 17.2648 9.08066 17.3058 9.02761 17.347C 8.96604 17.3948 8.90492 17.4429 8.84448 17.4919C 8.79209 17.5342 8.74015 17.5771 8.68844 17.6202C 8.629 17.6699 8.57001 17.7202 8.51158 17.771C 8.46087 17.815 8.4105 17.8594 8.36057 17.9043C 8.30293 17.9561 8.24606 18.0085 8.18953 18.0614C 8.14073 18.107 8.09204 18.1526 8.0439 18.1991C 7.98805 18.2531 7.93309 18.3078 7.87824 18.3628C 7.83145 18.4097 7.78466 18.4565 7.73877 18.5041C 7.68448 18.5605 7.63119 18.6178 7.57802 18.6751C 7.53358 18.723 7.48881 18.7707 7.44516 18.8195C 7.39198 18.8786 7.34027 18.9389 7.28833 18.9991C 7.24658 19.0474 7.20449 19.0954 7.16352 19.1443C 7.1108 19.2073 7.05976 19.2716 7.00838 19.3357C 6.97021 19.3834 6.93125 19.4304 6.89375 19.4787C 6.8398 19.5481 6.78764 19.6188 6.73525 19.6894C 6.70234 19.7337 6.66854 19.7773 6.6363 19.8221C 6.57003 19.9139 6.50589 20.0071 6.44231 20.1007C 6.42564 20.1253 6.40795 20.1493 6.39138 20.174C 6.31224 20.2923 6.23534 20.4119 6.16046 20.5328C 6.1346 20.5746 6.11031 20.6172 6.08501 20.6592C 6.03654 20.7397 5.98785 20.8201 5.94117 20.9017C 5.91207 20.9527 5.88453 21.0045 5.85621 21.0559C 5.81536 21.1298 5.77428 21.2035 5.7351 21.2783C 5.70599 21.3337 5.67846 21.3898 5.65014 21.4457C 5.61365 21.5178 5.57704 21.5898 5.54201 21.6627C 5.51413 21.7207 5.48761 21.7794 5.46063 21.8377C 5.4275 21.9097 5.39425 21.9816 5.36246 22.0543C 5.33627 22.1142 5.31119 22.1747 5.28601 22.235C 5.25567 22.3075 5.22556 22.3799 5.19668 22.4529C 5.17239 22.5143 5.14911 22.576 5.12583 22.6377C 5.09829 22.7109 5.07109 22.7843 5.0449 22.8581C 5.02273 22.9207 5.00124 22.9836 4.97997 23.0466C 4.95501 23.1206 4.93072 23.1949 4.90721 23.2696C 4.88718 23.3331 4.86781 23.3968 4.84878 23.4606C 4.8264 23.536 4.80479 23.6115 4.78386 23.6875C 4.76617 23.7515 4.74882 23.8157 4.73214 23.8802C 4.71233 23.9569 4.69353 24.0339 4.67517 24.1112C 4.65983 24.1757 4.64461 24.2401 4.63039 24.3048C 4.61316 24.3831 4.59715 24.4618 4.58148 24.5406C 4.5686 24.6051 4.55551 24.6696 4.54364 24.7344C 4.52898 24.8148 4.51577 24.8957 4.50267 24.9766C 4.49238 25.0405 4.48152 25.1042 4.47223 25.1682C 4.46003 25.2518 4.44973 25.3357 4.43921 25.4197C 4.43148 25.482 4.42297 25.5441 4.41615 25.6066C 4.40652 25.6946 4.39913 25.7832 4.39141 25.8718C 4.38626 25.9308 4.3801 25.9896 4.37585 26.0489C 4.36869 26.1478 4.36398 26.2471 4.35917 26.3465C 4.35682 26.3959 4.35313 26.445 4.35134 26.4945C 4.34596 26.6436 4.34294 26.7933 4.34294 26.9436C 4.34294 27.1058 4.34842 27.2593 4.35503 27.4287C 4.3566 27.4679 4.36208 27.5059 4.36992 27.5431C 4.37059 27.546 4.37092 27.5489 4.3716 27.5518C 4.37988 27.5885 4.39152 27.6236 4.40551 27.6577C 4.40686 27.661 4.40809 27.6644 4.40954 27.6677C 4.42398 27.7013 4.44122 27.7334 4.4607 27.7638C 4.46316 27.7676 4.46551 27.7714 4.46797 27.7751C 4.48801 27.805 4.51028 27.8331 4.53458 27.8593C 4.53637 27.8612 4.5376 27.8636 4.53939 27.8655L 4.62804 27.9599C 4.69498 28.0315 4.76192 28.103 4.83177 28.1727C 8.04883 31.3909 12.2746 33 16.5004 33C 20.7262 33 24.952 31.3909 28.169 28.1727C 28.2389 28.103 28.3058 28.0314 28.3727 27.9599L 28.4614 27.8655C 31.4377 24.7334 33.0491 20.6266 32.9989 16.3012C 32.9488 11.9672 31.2335 7.89246 28.1693 4.82725Z"/>
</defs>
</svg>
