<svg width="25" height="25" viewBox="0 0 25 25" version="1.1" xmlns="http://www.w3.org/2000/svg" xmlns:xlink="http://www.w3.org/1999/xlink">
<title>github</title>
<g id="Canvas" transform="translate(702 -2586)">
<g id="github">
<g id="Group">
<g id="Group">
<g id="Vector">
<use xlink:href="#path-github" transform="translate(-702 2586)"/>
</g>
</g>
</g>
</g>
</g>
<defs>
<path id="path-github" d="M 12.4984 -1.90224e-10C 5.59688 -1.90224e-10 0 5.7382 0 12.8168C 0 18.4784 3.58125 23.2815 8.55 24.9778C 9.175 25.0959 9.40312 24.7001 9.40312 24.3602C 9.40312 24.0554 9.39219 23.2496 9.38594 22.1805C 5.90938 22.9544 5.175 20.4619 5.175 20.4619C 4.60781 18.9811 3.7875 18.5869 3.7875 18.5869C 2.65156 17.7923 3.87187 17.8082 3.87187 17.8082C 5.12656 17.8992 5.78594 19.1295 5.78594 19.1295C 6.90156 21.0874 8.7125 20.5225 9.425 20.1938C 9.5375 19.3656 9.86094 18.8007 10.2188 18.48C 7.44375 18.1561 4.525 17.0566 4.525 12.1466C 4.525 10.7472 5.0125 9.60303 5.8125 8.70624C 5.68281 8.38231 5.25469 7.0786 5.93438 5.31534C 5.93438 5.31534 6.98438 4.97066 9.37187 6.62861C 10.3688 6.34457 11.4375 6.20256 12.5016 6.19777C 13.5625 6.20415 14.6328 6.34457 15.6312 6.63021C 18.0172 4.97226 19.0656 5.31693 19.0656 5.31693C 19.7469 7.0818 19.3187 8.3839 19.1906 8.70783C 19.9922 9.60463 20.475 10.7488 20.475 12.1482C 20.475 17.071 17.5531 18.1545 14.7687 18.472C 15.2172 18.8678 15.6172 19.6497 15.6172 20.8449C 15.6172 22.5587 15.6016 23.9406 15.6016 24.3602C 15.6016 24.7033 15.8266 25.1022 16.4609 24.9762C 21.4219 23.2783 25 18.4768 25 12.8168C 25 5.7382 19.4031 -1.90224e-10 12.4984 -1.90224e-10Z"/>
</defs>
</svg>
