<svg width="24" height="29" viewBox="0 0 24 29" version="1.1" xmlns="http://www.w3.org/2000/svg" xmlns:xlink="http://www.w3.org/1999/xlink">
<title>home</title>
<g id="Canvas" transform="translate(702 -2004)">
<g id="home">
<g id="Vector">
<use xlink:href="#path-home" transform="translate(-702 2004)"/>
</g>
</g>
</g>
<defs>
<path id="path-home" d="M 23.32 14.3831C 22.9445 14.3831 22.64 14.6975 22.64 15.0853L 22.64 27.5957L 15.3433 27.5957L 15.3433 19.7424C 15.3433 19.3547 15.0388 19.0402 14.6633 19.0402L 9.33678 19.0402C 8.96131 19.0402 8.65679 19.3547 8.65679 19.7424L 8.65679 25.9695C 8.65679 26.3572 8.96131 26.6717 9.33678 26.6717C 9.71224 26.6717 10.0168 26.3572 10.0168 25.9695L 10.0168 20.4446L 13.9833 20.4446L 13.9833 27.5957L 1.35997 27.5957L 1.35997 10.4078L 11.9999 1.60227L 22.8947 10.6186C 23.1878 10.8612 23.6157 10.8123 23.8505 10.5098C 24.0853 10.2071 24.0382 9.76533 23.7451 9.52271L 12.4252 0.15431C 12.1767 -0.0514368 11.8231 -0.0514368 11.5747 0.15431L 0.254768 9.52271C 0.0937247 9.65602 2.59394e-08 9.85743 2.59394e-08 10.0707L 2.59394e-08 28.2978C 2.59394e-08 28.6855 0.304407 29 0.679986 29L 23.32 29C 23.6956 29 24 28.6855 24 28.2978L 24 15.0853C 24 14.6974 23.6956 14.3831 23.32 14.3831Z"/>
</defs>
</svg>
