<svg width="25" height="25" viewBox="0 0 25 25" version="1.1" xmlns="http://www.w3.org/2000/svg" xmlns:xlink="http://www.w3.org/1999/xlink">
<title>linkedin-logo</title>
<g id="Canvas" transform="translate(702 -2540)">
<g id="linkedin-logo">
<g id="Group">
<g id="LinkedIn  x28 alt x29">
<use xlink:href="#path-linkedin" transform="translate(-702 2540)"/>
</g>
</g>
</g>
</g>
<defs>
<path id="path-linkedin" d="M 23.154 0L 1.84719 0C 0.826934 0 5.52151e-12 0.801699 5.52151e-12 1.79119L 5.52151e-12 23.208C 5.52151e-12 24.1976 0.827224 25 1.84719 25L 23.154 25C 24.174 25 25 24.1971 25 23.208L 25 1.79119C 25 0.801989 24.174 0 23.154 0ZM 7.57929 20.9267L 3.80197 20.9267L 3.80197 9.63951L 7.57929 9.63951L 7.57929 20.9267ZM 5.691 8.09749L 5.6656 8.09749C 4.3989 8.09749 3.57778 7.23121 3.57778 6.14669C 3.57778 5.0403 4.42302 4.19751 5.71484 4.19751C 7.00676 4.19751 7.80144 5.04007 7.82655 6.14669C 7.82655 7.23145 7.00705 8.09749 5.691 8.09749ZM 21.1954 20.9267L 17.4193 20.9267L 17.4193 14.8877C 17.4193 13.3702 16.8722 12.3348 15.5066 12.3348C 14.462 12.3348 13.8418 13.0333 13.5695 13.7078C 13.4686 13.9486 13.4436 14.2855 13.4436 14.6219L 13.4436 20.9265L 9.66821 20.9265C 9.66821 20.9265 9.71762 10.6979 9.66821 9.63933L 13.4442 9.63933L 13.4442 11.2395C 13.9455 10.4706 14.8412 9.37376 16.8464 9.37376C 19.3318 9.37376 21.1954 10.9861 21.1954 14.4546L 21.1954 20.9267ZM 13.4198 11.2754C 13.4262 11.2648 13.4352 11.2521 13.4442 11.2397L 13.4442 11.2754L 13.4198 11.2754Z"/>
</defs>
</svg>
